<?xml version="1.0" encoding="UTF-8" standalone="no"?><!DOCTYPE svg PUBLIC "-//W3C//DTD SVG 1.1//EN" "http://www.w3.org/Graphics/SVG/1.1/DTD/svg11.dtd"><svg width="100%" height="100%" viewBox="0 0 1760 945" version="1.1" xmlns="http://www.w3.org/2000/svg" xmlns:xlink="http://www.w3.org/1999/xlink" xml:space="preserve" xmlns:serif="http://www.serif.com/" style="fill-rule:evenodd;clip-rule:evenodd;stroke-linejoin:round;stroke-miterlimit:2;"><g><circle cx="1666.804" cy="425.723" r="19.5" style="fill:#18cb96;"/><circle cx="1582.324" cy="341.19" r="19.5" style="fill:#18cb96;"/><path d="M1647.304,425.802l-0,-65.079l-65,0l0,-39l104,0l0,105" style="fill:#18cb96;"/></g><g><circle cx="1606.804" cy="485.723" r="19.5" style="fill:#18cb96;"/><circle cx="1522.324" cy="401.19" r="19.5" style="fill:#18cb96;"/><path d="M1587.304,485.802l-0,-65.079l-65,0l0,-39l104,0l0,105" style="fill:#18cb96;"/></g><g><path d="M168.911,595.625c5.086,0 10.189,-0.543 15.31,-1.628c5.12,-1.085 9.867,-2.848 14.242,-5.29c4.374,-2.441 8.189,-5.646 11.444,-9.613c3.255,-3.967 5.527,-8.867 6.816,-14.699l-0.203,-0.814l-48.726,0l0,-23.092l84.33,0c0,6.578 0.051,13.377 0.153,20.396c0.102,7.019 0.288,13.953 0.559,20.803c0.271,6.85 0.644,13.445 1.119,19.786c0.475,6.341 1.085,12.122 1.831,17.344l-28.788,0c-0.949,-4.205 -1.662,-8.613 -2.136,-13.224c-0.475,-4.612 -0.848,-9.393 -1.119,-14.343c-2.78,6.239 -6.46,11.41 -11.037,15.513c-4.578,4.103 -9.613,7.375 -15.106,9.816c-5.493,2.441 -11.224,4.154 -17.192,5.137c-5.968,0.983 -11.732,1.475 -17.293,1.475c-8.613,0 -16.802,-0.814 -24.567,-2.441c-7.765,-1.628 -14.971,-3.984 -21.617,-7.07c-6.646,-3.086 -12.631,-6.85 -17.955,-11.292c-5.324,-4.442 -9.85,-9.477 -13.58,-15.106c-3.73,-5.629 -6.612,-11.8 -8.647,-18.514c-2.035,-6.714 -3.052,-13.869 -3.052,-21.464c0,-12.682 2.323,-23.922 6.968,-33.722c4.645,-9.8 11.156,-18.005 19.531,-24.618c8.375,-6.612 18.344,-11.631 29.907,-15.055c11.563,-3.425 24.261,-5.137 38.096,-5.137c10.647,0 20.515,1.136 29.602,3.408c9.087,2.272 17.225,5.527 24.414,9.766c7.189,4.239 13.309,9.376 18.361,15.411c5.052,6.036 8.833,12.817 11.342,20.345l-39.062,3.459c-1.695,-4.137 -3.866,-7.697 -6.51,-10.681c-2.645,-2.984 -5.815,-5.459 -9.511,-7.426c-3.696,-1.967 -7.985,-3.425 -12.868,-4.374c-4.883,-0.949 -10.41,-1.424 -16.581,-1.424c-7.731,0 -14.92,1.102 -21.566,3.306c-6.646,2.204 -12.41,5.374 -17.293,9.511c-4.883,4.137 -8.714,9.206 -11.495,15.208c-2.78,6.002 -4.171,12.767 -4.171,20.294c0,7.663 1.238,14.581 3.713,20.752c2.475,6.171 6.087,11.427 10.834,15.767c4.747,4.34 10.596,7.68 17.548,10.02c6.951,2.34 14.937,3.51 23.956,3.51Z" style="fill:#373643;"/><path d="M399.318,618.818c-0.339,-0.949 -0.831,-2.764 -1.475,-5.442c-0.644,-2.679 -1.136,-6.053 -1.475,-10.122l-1.119,-13.123c-0.407,-4.137 -1.56,-7.68 -3.459,-10.63c-1.899,-2.95 -4.323,-5.374 -7.273,-7.273c-2.95,-1.899 -6.29,-3.272 -10.02,-4.12c-3.73,-0.848 -7.629,-1.272 -11.698,-1.272l-40.283,0l0,51.982l-37.638,0l0,-145.671l92.265,0c5.29,0 10.478,0.322 15.564,0.966c5.086,0.644 9.884,1.678 14.394,3.103c4.51,1.424 8.664,3.306 12.461,5.646c3.798,2.34 7.087,5.188 9.867,8.545c2.78,3.357 4.934,7.29 6.46,11.8c1.526,4.51 2.289,9.681 2.289,15.513c0,5.29 -0.746,9.952 -2.238,13.987c-1.492,4.035 -3.611,7.528 -6.358,10.478c-2.747,2.95 -6.07,5.476 -9.969,7.579c-3.899,2.102 -8.223,3.866 -12.97,5.29c2.509,0.203 5.239,0.983 8.189,2.34c2.95,1.356 5.731,3.323 8.341,5.9c2.611,2.577 4.883,5.832 6.816,9.766c1.933,3.933 3.137,8.613 3.611,14.038l1.017,14.852c0.339,3.662 0.983,6.883 1.933,9.664c0.949,2.78 1.729,4.849 2.34,6.205l-39.571,0Zm-28.585,-79.346c3.933,0 7.579,-0.288 10.935,-0.865c3.357,-0.576 6.239,-1.611 8.647,-3.103c2.407,-1.492 4.289,-3.56 5.646,-6.205c1.356,-2.645 2.035,-6.036 2.035,-10.173c0,-3.866 -0.712,-6.985 -2.136,-9.359c-1.424,-2.374 -3.34,-4.205 -5.747,-5.493c-2.407,-1.289 -5.188,-2.153 -8.341,-2.594c-3.153,-0.441 -6.46,-0.661 -9.918,-0.661l-49.337,0l0,38.452l48.218,0Z" style="fill:#373643;"/><path d="M549.668,623.192c-14.513,0 -27.652,-1.831 -39.419,-5.493c-11.766,-3.662 -21.82,-8.867 -30.162,-15.615c-8.341,-6.748 -14.767,-14.869 -19.277,-24.363c-4.51,-9.494 -6.765,-20.108 -6.765,-31.84c0,-11.597 2.255,-22.142 6.765,-31.637c4.51,-9.494 10.935,-17.598 19.277,-24.312c8.341,-6.714 18.412,-11.919 30.212,-15.615c11.8,-3.696 25.024,-5.544 39.673,-5.544c14.445,0 27.551,1.848 39.317,5.544c11.766,3.696 21.786,8.918 30.06,15.666c8.274,6.748 14.665,14.852 19.175,24.312c4.51,9.46 6.765,19.989 6.765,31.586c0,11.732 -2.255,22.346 -6.765,31.84c-4.51,9.494 -10.919,17.615 -19.226,24.363c-8.308,6.748 -18.344,11.953 -30.111,15.615c-11.766,3.662 -24.94,5.493 -39.52,5.493Zm0.102,-29.195c8.341,0 15.92,-1.119 22.736,-3.357c6.816,-2.238 12.648,-5.442 17.497,-9.613c4.849,-4.171 8.613,-9.223 11.292,-15.157c2.679,-5.934 4.018,-12.597 4.018,-19.989c0,-7.392 -1.305,-14.038 -3.916,-19.938c-2.611,-5.9 -6.341,-10.919 -11.19,-15.055c-4.849,-4.137 -10.698,-7.324 -17.548,-9.562c-6.85,-2.238 -14.479,-3.357 -22.888,-3.357c-8.341,0 -15.92,1.119 -22.736,3.357c-6.816,2.238 -12.665,5.425 -17.548,9.562c-4.883,4.137 -8.647,9.172 -11.292,15.106c-2.645,5.934 -3.967,12.563 -3.967,19.887c0,7.46 1.339,14.157 4.018,20.091c2.679,5.934 6.46,10.969 11.342,15.106c4.883,4.137 10.732,7.324 17.548,9.562c6.816,2.238 14.36,3.357 22.634,3.357Z" style="fill:#373643;"/><path d="M818.935,618.818l-33.875,-93.18l-4.272,-14.852l-4.272,14.852l-33.773,93.18l-41.707,0l-53.101,-145.671l40.588,0l32.654,97.453l2.747,10.071l38.656,-107.524l38.757,0l39.266,107.524l2.848,-10.173l32.247,-97.351l38.045,0l-52.999,145.671l-41.809,0Z" style="fill:#373643;"/><path d="M1097.459,568.769c-2.374,9.562 -6.392,17.785 -12.054,24.668c-5.663,6.883 -12.377,12.529 -20.142,16.937c-7.765,4.408 -16.344,7.646 -25.736,9.715c-9.393,2.068 -19.04,3.103 -28.941,3.103c-14.377,0 -27.381,-1.831 -39.012,-5.493c-11.631,-3.662 -21.549,-8.833 -29.755,-15.513c-8.206,-6.68 -14.53,-14.75 -18.972,-24.211c-4.442,-9.46 -6.663,-19.989 -6.663,-31.586c0,-11.664 2.221,-22.278 6.663,-31.84c4.442,-9.562 10.732,-17.734 18.87,-24.516c8.138,-6.782 17.938,-12.021 29.399,-15.717c11.461,-3.696 24.211,-5.544 38.249,-5.544c10.24,0 20.142,1.034 29.704,3.103c9.562,2.068 18.26,5.307 26.093,9.715c7.833,4.408 14.564,10.037 20.192,16.886c5.629,6.85 9.63,15.055 12.004,24.618l-38.757,3.052c-1.492,-5.561 -3.832,-10.156 -7.019,-13.784c-3.187,-3.628 -6.883,-6.51 -11.088,-8.647c-4.205,-2.136 -8.782,-3.628 -13.733,-4.476c-4.951,-0.848 -9.935,-1.272 -14.954,-1.272c-8.138,0 -15.615,1.068 -22.43,3.204c-6.816,2.136 -12.665,5.239 -17.548,9.308c-4.883,4.069 -8.681,9.037 -11.393,14.903c-2.713,5.866 -4.069,12.529 -4.069,19.989c0,7.663 1.373,14.496 4.12,20.498c2.747,6.002 6.612,11.088 11.597,15.259c4.985,4.171 10.919,7.358 17.802,9.562c6.883,2.204 14.462,3.306 22.736,3.306c5.018,0 9.952,-0.424 14.801,-1.272c4.849,-0.848 9.342,-2.34 13.479,-4.476c4.137,-2.136 7.748,-5.018 10.834,-8.647c3.086,-3.628 5.374,-8.189 6.866,-13.682l38.859,2.848Z" style="fill:#373643;"/><path d="M1206,623.192c-14.513,0 -27.652,-1.831 -39.419,-5.493c-11.766,-3.662 -21.82,-8.867 -30.162,-15.615c-8.341,-6.748 -14.767,-14.869 -19.277,-24.363c-4.51,-9.494 -6.765,-20.108 -6.765,-31.84c0,-11.597 2.255,-22.142 6.765,-31.637c4.51,-9.494 10.935,-17.598 19.277,-24.312c8.341,-6.714 18.412,-11.919 30.212,-15.615c11.8,-3.696 25.024,-5.544 39.673,-5.544c14.445,0 27.551,1.848 39.317,5.544c11.766,3.696 21.786,8.918 30.06,15.666c8.274,6.748 14.665,14.852 19.175,24.312c4.51,9.46 6.765,19.989 6.765,31.586c0,11.732 -2.255,22.346 -6.765,31.84c-4.51,9.494 -10.919,17.615 -19.226,24.363c-8.308,6.748 -18.344,11.953 -30.111,15.615c-11.766,3.662 -24.94,5.493 -39.52,5.493Zm0.102,-29.195c8.341,0 15.92,-1.119 22.736,-3.357c6.816,-2.238 12.648,-5.442 17.497,-9.613c4.849,-4.171 8.613,-9.223 11.292,-15.157c2.679,-5.934 4.018,-12.597 4.018,-19.989c0,-7.392 -1.305,-14.038 -3.916,-19.938c-2.611,-5.9 -6.341,-10.919 -11.19,-15.055c-4.849,-4.137 -10.698,-7.324 -17.548,-9.562c-6.85,-2.238 -14.479,-3.357 -22.888,-3.357c-8.341,0 -15.92,1.119 -22.736,3.357c-6.816,2.238 -12.665,5.425 -17.548,9.562c-4.883,4.137 -8.647,9.172 -11.292,15.106c-2.645,5.934 -3.967,12.563 -3.967,19.887c0,7.46 1.339,14.157 4.018,20.091c2.679,5.934 6.46,10.969 11.342,15.106c4.883,4.137 10.732,7.324 17.548,9.562c6.816,2.238 14.36,3.357 22.634,3.357Z" style="fill:#373643;"/><path d="M1494.492,618.818l0,-89.722l0.814,-19.836l-7.935,19.531l-44.149,90.027l-33.468,0l-43.844,-89.722l-8.24,-20.243l0.916,20.142l0,89.823l-32.756,0l0,-145.671l49.337,0l45.064,95.317l7.731,24.007l7.833,-24.007l45.064,-95.317l49.235,0l0,145.671l-35.604,0Z" style="fill:#373643;"/></g></svg>